<?xml version="1.0" encoding="utf-8"?>
<!-- Generator: Adobe Illustrator 24.1.2, SVG Export Plug-In . SVG Version: 6.00 Build 0)  -->
<svg version="1.1" id="Layer_1" xmlns="http://www.w3.org/2000/svg" xmlns:xlink="http://www.w3.org/1999/xlink" x="0px" y="0px"
	 viewBox="0 0 117 117" style="enable-background:new 0 0 117 117;" xml:space="preserve">
<style type="text/css">
	.st0{clip-path:url(#SVGID_2_);}
	.st1{fill:#339E68;}
	.st2{fill:#FFFFFF;}
</style>
<g>
	<defs>
		<rect id="SVGID_1_" y="0" width="117" height="117"/>
	</defs>
	<clipPath id="SVGID_2_">
		<use xlink:href="#SVGID_1_"  style="overflow:visible;"/>
	</clipPath>
	<g class="st0">
		<path class="st1" d="M93.4,0H23.6C10.5,0,0,10.5,0,23.6v69.9c0,13,10.5,23.6,23.6,23.6h69.9c13,0,23.6-10.5,23.6-23.6V23.6
			C117,10.5,106.5,0,93.4,0z"/>
		<g>
			<path class="st2" d="M70.8,74.7c11.3,0,22.7,0,34,0c3.5,0,4.7,1.3,4.8,4.8c0,2.6,0,5.1,0,7.7c0,3-1.5,4.4-4.5,4.4
				c-23,0-46,0-69,0c-1.2,0-1.9-0.5-1.8-1.5c0-0.7,0.5-1.5,0.9-2.1c0.3-0.4,0.9-0.5,1.4-0.8c3.1-1.6,3.5-2.4,2.9-5.8
				c-0.1-0.5-0.6-1.1-1.1-1.4c-1-0.7-2.1-1.2-3.2-1.7c-1-0.5-1.2-1.2-1-2.3c0.3-1.1,0.9-1.3,1.9-1.3C47.7,74.7,59.2,74.7,70.8,74.7z
				 M66.3,77.1c-3.3,0-6,2.6-6,5.9c0,3.4,2.7,6.1,6,6c3.3,0,6-2.7,6-5.9C72.4,79.8,69.7,77.1,66.3,77.1z M98.9,77.1
				c-3.3,0-6,2.6-6,5.9c0,3.4,2.6,6.1,6,6.1c3.3,0,6-2.6,6-5.9C105,79.8,102.3,77.1,98.9,77.1z M82.7,77.1c-3.4,0-6.1,2.7-6.1,6
				c0,3.3,2.7,5.9,6,5.9c3.4,0,6-2.6,6-6C88.6,79.7,86,77.1,82.7,77.1z M50.1,77.1c-3.4,0-6,2.5-6,5.8c0,3.4,2.5,6.1,5.9,6.1
				c3.4,0,6-2.6,6-6C56.1,79.7,53.5,77.1,50.1,77.1z"/>
			<path class="st2" d="M54.3,72.2c-2.2,0-4.1,0-6,0c-0.1-0.1-0.2-0.2-0.2-0.3c0.1-4.1-0.3-8.3,0.3-12.3c0.8-5.4,4.2-9.1,9.2-11.3
				c1-0.4,1.6-0.3,2.2,0.6c0.9,1.2,1.9,2.4,2.9,3.6c0.2,0.3,0.4,0.8,0.7,0.9c2.4,0.5,1.7,2.3,1.6,3.9c-0.4,5-0.7,9.9-1.1,15
				c-2.4,0-4.7,0-7.3,0c0-2.2,0.1-4.4,0-6.6c0-1,0.6-2.7-1.2-2.7c-1.6,0-1.1,1.6-1.1,2.6C54.2,67.6,54.3,69.8,54.3,72.2z"/>
			<path class="st2" d="M89,72.2c-1.9,0-3.6,0.1-5.3-0.1c-0.3,0-0.9-0.7-0.9-1.1c-0.1-2.1,0-4.3-0.1-6.4c0-0.9,0-2-1.2-1.8
				c-0.5,0.1-1,1.2-1.1,1.8c-0.1,2.4-0.1,4.9-0.1,7.5c-2.5,0-4.8,0-7.3,0c-0.3-4.6-0.7-9.1-1-13.6c-0.1-0.7,0-1.4-0.2-2.1
				c-0.2-1.3-0.1-2.1,1.3-2.9c1.6-0.9,2.6-2.8,3.7-4.3c0.8-1.2,1.6-1.3,2.9-0.7c5.6,2.8,8.8,7.1,9.1,13.4C89.2,65.2,89,68.6,89,72.2
				z"/>
			<path class="st2" d="M14.1,94.2c-1.6,0.5-2.7,1-3.9,1.2c-0.6,0.1-1.5-0.1-2-0.5c-0.4-0.4-0.5-1.2-0.4-1.8
				c0.1-0.9,0.5-1.7,0.8-2.5c0.5-1.8-0.2-3.7-1.9-4.6c-0.8-0.4-1.6-0.7-2.3-1.3c-0.5-0.4-1-1.1-1-1.7c0-0.6,0.6-1.3,1.1-1.7
				c1.2-1,3-1.1,3.8-2.8c1-1.9-0.2-3.5-0.4-5.2c-0.1-0.7-0.1-1.6,0.3-2c0.4-0.4,1.3-0.6,1.9-0.6c0.9,0.1,1.7,0.5,2.5,0.7
				c1.9,0.6,3.7-0.2,4.6-2c0.4-0.7,0.7-1.5,1.2-2.2c0.4-0.5,1.1-1.1,1.7-1.1c0.6,0,1.3,0.5,1.7,1c1,1.2,1.2,3,2.8,3.9
				c1.9,1,3.5-0.1,5.2-0.4c0.6-0.1,1.4-0.2,2,0.1c0.9,0.4,1.1,1.3,0.7,2.2c-0.3,0.8-0.5,1.6-0.8,2.3c-0.6,2,0.2,3.8,2,4.7
				c0.7,0.4,1.5,0.7,2.2,1.2c0.5,0.4,1,1.1,1,1.6c0,0.6-0.5,1.3-1,1.7c-0.8,0.6-1.7,0.9-2.6,1.4c-1.2,0.7-2.1,2.7-1.7,4
				c0.3,1.1,0.7,2.1,0.9,3.1c0.3,1.3-0.9,2.5-2.2,2.2c-1-0.2-1.9-0.6-2.8-0.9c-1.8-0.5-3.6,0.2-4.5,1.9c-0.4,0.8-0.7,1.6-1.3,2.3
				c-0.4,0.5-1.1,1-1.7,1c-0.5,0-1.2-0.5-1.6-1c-0.6-0.8-0.8-2-1.5-2.7C16.1,95.3,15,94.8,14.1,94.2z M20.2,72.5
				c-6,0-10.6,4.6-10.6,10.6c0,5.9,4.8,10.7,10.7,10.6c5.8-0.1,10.5-4.7,10.5-10.6C30.9,77.2,26.2,72.5,20.2,72.5z"/>
			<path class="st2" d="M79,26.4c1.1,6.8-0.7,12.3-7.1,14.5c-6.7,2.4-13.7-2.5-14-9.6c-0.1-1.3,0.1-2.6-0.1-3.9
				c-0.2-1.5,0.5-2.3,1.8-2.6c1.3-0.3,2.5-0.8,3.8-0.9c0.8-0.1,1.9,0.3,2.5,0.9c1.7,1.8,3.8,2.4,6.1,2.3C74.3,27,76.7,26.6,79,26.4z
				"/>
			<path class="st2" d="M58.4,22.6c0.6-4.4,5.1-8,9.9-8.1c5.4-0.1,9.8,3.5,10.8,9.1c-3.2,0.9-6.4,1.6-9.7,0.6
				c-0.4-0.1-0.9-0.3-1.1-0.7c-2.1-2.6-4.8-2.4-7.7-1.6C59.9,22.1,59.2,22.3,58.4,22.6z"/>
			<path class="st2" d="M70.7,72.2c-1.6,0-2.9,0-4.4,0c0.2-2.9,0.4-5.8,0.6-8.7c0.2-2.2,0.3-4.5,0.6-6.7c0-0.4,0.6-0.9,0.9-0.9
				c0.3,0,1,0.5,1.1,0.8C70,61.8,70.3,66.9,70.7,72.2z"/>
			<path class="st2" d="M66.6,47.8c-0.7,0.9-1.5,1.8-2.3,2.9c-1.1-1.3-2-2.5-3-3.7C63.2,45.2,63.8,45.3,66.6,47.8z"/>
			<path class="st2" d="M70.4,47.9c2.6-2.5,3.2-2.6,5.3-0.9c-0.9,1.2-1.9,2.3-3,3.7C71.9,49.6,71.2,48.8,70.4,47.9z"/>
			<path class="st2" d="M68.4,49.6c1.8,1.5,2.3,2.7,1.3,3.5c-0.5,0.4-1.7,0.5-2.4,0.1C66.4,52.7,66.9,51.3,68.4,49.6z"/>
			<path class="st2" d="M65.2,43.6c1.3,0.1,2.3,0.3,3.3,0.3c1,0,2-0.2,3.1-0.2C69.8,46.3,68.2,46.3,65.2,43.6z"/>
			<path class="st2" d="M70,83c0,2-1.6,3.7-3.6,3.7c-2,0-3.7-1.7-3.7-3.6c0-1.9,1.6-3.6,3.5-3.7C68.2,79.3,69.9,81,70,83z"/>
			<path class="st2" d="M102.5,83.1c0,2-1.7,3.6-3.7,3.6c-1.9,0-3.5-1.7-3.5-3.6c0-1.9,1.7-3.7,3.7-3.7
				C100.9,79.4,102.5,81.1,102.5,83.1z"/>
			<path class="st2" d="M79,83c0-2,1.7-3.7,3.7-3.6c1.9,0.1,3.5,1.7,3.6,3.6c0,2-1.6,3.7-3.6,3.7C80.6,86.7,79,85.1,79,83z"/>
			<path class="st2" d="M53.8,83.1c0,2-1.8,3.6-3.8,3.6c-2-0.1-3.6-1.8-3.5-3.8c0.1-1.9,1.8-3.5,3.7-3.5
				C52.1,79.4,53.8,81.2,53.8,83.1z"/>
			<path class="st2" d="M20.2,91.3c-4.5,0-8.3-3.8-8.2-8.3c0-4.5,3.9-8.3,8.3-8.2c4.5,0,8.2,3.8,8.2,8.3
				C28.4,87.7,24.7,91.4,20.2,91.3z M25.8,83.1c0-3.2-2.3-5.6-5.5-5.7c-3.2,0-5.6,2.4-5.7,5.5c0,3.2,2.3,5.6,5.5,5.7
				C23.4,88.7,25.8,86.3,25.8,83.1z"/>
			<path class="st2" d="M20.1,79.8c1.7,0,3.3,1.5,3.4,3.2c0.1,1.7-1.4,3.3-3.1,3.4c-1.8,0.1-3.4-1.5-3.4-3.2
				C16.9,81.4,18.4,79.9,20.1,79.8z"/>
		</g>
	</g>
</g>
</svg>
