<?xml version="1.0" encoding="UTF-8"?>
<svg xmlns="http://www.w3.org/2000/svg" viewBox="0 0 117 117" role="img" aria-label="Disciplinary Matters">
  <rect width="117" height="117" rx="23.6" fill="#C85A54"/>
  
  <g fill="none" stroke="#fff" stroke-width="5.2" stroke-linecap="round" stroke-linejoin="round">
    <path d="M25 85h67"/>
    <path d="M36 72h20l16-16"/>
    <path d="M56 72l17 0"/>
    <path d="M23 61c8-10 17-10 26 0"/>
    <path d="M27 62h18"/>
    <path d="M32 62l-8 18h29l-8-18"/>
    <path d="M72 31l16 16"/>
    <path d="M67 36l16 16"/>
    <path d="M78 25l16 16"/>
    <path d="M63 40l19-19"/>
    <path d="M81 58l17-17"/>
    <path d="M86 53l8 8c2 2 2 5 0 7l-2 2"/>
    <circle cx="32" cy="33" r="8" fill="#fff" stroke="none"/>
    <path d="M21 49c3-8 19-8 22 0" fill="#fff" stroke="none"/>
  </g>
</svg>
