<?xml version="1.0" encoding="UTF-8"?>
<svg xmlns="http://www.w3.org/2000/svg" viewBox="0 0 117 117" role="img" aria-label="Setup">
  <rect width="117" height="117" rx="23.6" fill="#7E5AA8"/>
  
  <g fill="none" stroke="#fff" stroke-width="5.2" stroke-linecap="round" stroke-linejoin="round">
    <path d="M58.5 27l5 9 10 1 2 10 8 6-4 10 4 10-8 6-2 10-10 1-5 9-9-5-10 2-5-8-10-4 1-10-6-8 6-8-1-10 10-4 5-8 10 2z"/>
    <circle cx="58.5" cy="63" r="14"/>
    <path d="M58.5 57v12M52.5 63h12"/>
    <path d="M86 28h12M92 22v12"/>
    <path d="M20 28h18M29 19v18"/>
  </g>
</svg>
