<svg id="frappe-symbols" aria-hidden="true" style="display: none;" class="icon" xmlns="http://www.w3.org/2000/svg">
    <symbol viewBox="0 0 24 24" id="icon-ir-attendance">
      <rect x="4" y="5" width="14" height="13" rx="2" />
      <path d="M4 9h14" />
      <path d="M7 3v4" />
      <path d="M15 3v4" />
      <circle cx="7.25" cy="12.25" r=".75" />
      <circle cx="11" cy="12.25" r=".75" />
      <circle cx="14.75" cy="12.25" r=".75" />
      <circle cx="7.25" cy="15.75" r=".75" />
      <path d="m10.25 15.75 1.2 1.2 2.55-2.7" />
      <circle cx="17.5" cy="17.5" r="3.6" />
      <path d="M17.5 15.35v2.15l1.8 1.05" />
    </symbol>

    <symbol viewBox="0 0 24 24" id="icon-ir-disciplinary">
      <path d="M5 3.5h6.75L15 6.75V17H5z" />
      <path d="M11.75 3.5v3.25H15" />
      <path d="M7 8.75h4.25" />
      <path d="M7 11.25h5.3" />
      <path d="M7 13.75h4.25" />
      <path d="m13.25 12.9 2.15-2.15" />
      <path d="m15.1 10.25 4.35 4.35" />
      <path d="m14.2 13.55 1.95 1.95" />
      <path d="m17.25 9 2.25 2.25" />
      <path d="M9 19.4h7" />
      <path d="M10.4 17.6h4.2" />
    </symbol>

    <symbol viewBox="0 0 24 24" id="icon-ir-general">
      <path d="M4.5 3.5h7L14.5 6.5v10h-10z" />
      <path d="M11.5 3.5v3h3" />
      <path d="M6.75 8.75h5" />
      <path d="M6.75 11.25h4.5" />
      <path d="M6.75 13.75h4" />
      <circle cx="14.9" cy="14.15" r="1.75" />
      <path d="M11.5 20.25v-1.3a2.7 2.7 0 0 1 2.7-2.7h1.4a2.7 2.7 0 0 1 2.7 2.7v1.3z" />
      <path d="M15.6 6.4h3.6a1.8 1.8 0 0 1 1.8 1.8v2.15a1.8 1.8 0 0 1-1.8 1.8h-.85l-1.65 1.55v-1.55h-1.1" />
      <path d="M17.35 9.25h.01" />
      <path d="M18.65 9.25h.01" />
      <path d="M19.95 9.25h.01" />
    </symbol>

    <symbol viewBox="0 0 24 24" id="icon-ir-setup">
      <path d="M9.15 3.25h2.1l.5 2.1a6.5 6.5 0 0 1 1.45.6l1.85-1.15 1.5 1.5-1.15 1.85c.25.46.45.95.6 1.45l2.1.5v2.1l-2.1.5a6.5 6.5 0 0 1-.6 1.45l1.15 1.85-1.5 1.5-1.85-1.15c-.46.25-.95.45-1.45.6l-.5 2.1h-2.1l-.5-2.1a6.5 6.5 0 0 1-1.45-.6L5.35 17.5 3.85 16l1.15-1.85a6.5 6.5 0 0 1-.6-1.45l-2.1-.5v-2.1l2.1-.5c.15-.5.35-.99.6-1.45L3.85 6.3l1.5-1.5L7.2 5.95c.46-.25.95-.45 1.45-.6z" />
      <circle cx="10.2" cy="11.15" r="2.25" />
      <path d="M14.25 11.15h7.25" />
      <path d="M14.25 14.25h7.25" />
      <path d="M14.25 17.35h7.25" />
      <circle cx="18.05" cy="11.15" r=".9" />
      <circle cx="16.7" cy="14.25" r=".9" />
      <circle cx="19.1" cy="17.35" r=".9" />
    </symbol>

    <symbol viewBox="0 0 24 24" id="icon-ir-training">
      <path d="M3.5 8.5 12 4.75l8.5 3.75L12 12.25z" />
      <path d="M5.75 9.55v3.5" />
      <circle cx="5.75" cy="14.2" r=".7" />
      <path d="M7.7 11.25v2.5L12 15.6l4.3-1.85v-2.5" />
      <path d="M4.75 16.25c2.4-.8 4.8-.35 7.25 1.35 2.45-1.7 4.85-2.15 7.25-1.35v3.35c-2.4-.8-4.8-.35-7.25 1.35-2.45-1.7-4.85-2.15-7.25-1.35z" />
      <path d="M12 17.6v3.35" />
    </symbol>
</svg>
